<svg width="56" height="17" viewBox="0 0 56 17" fill="none" xmlns="http://www.w3.org/2000/svg">
<path d="M0.89418 12.1152C1.49026 12.7051 2.39483 13 3.60266 13H11.9843V9.44949H4.14645V3.51712H12V0H3.4824C2.36868 0 1.50594 0.306079 0.904637 0.912671C0.303334 1.51926 6.76129e-05 2.38741 6.76129e-05 3.51712V9.44949C-0.00516112 10.6404 0.292876 11.5253 0.89418 12.1152Z" fill="#E4E4E4"/>
<path d="M16.795 13H19.2105C19.8212 13 20.2944 12.9068 20.619 12.7145C20.9436 12.5221 21.1967 12.2075 21.3728 11.7646C21.5873 12.2191 21.8624 12.5396 22.1816 12.7261C22.5062 12.9126 22.9684 13 23.5681 13H26V9.53846H25.3287V3H21.3673V3.90909C21.1087 3.57692 20.8226 3.34382 20.5254 3.20396C20.2228 3.06993 19.8377 3 19.359 3H16.7895C15.8927 3 15.205 3.25058 14.7208 3.74592C14.2366 4.24126 14 4.95804 14 5.89044V10.1154C14 11.0478 14.2366 11.7587 14.7153 12.2541C15.205 12.7494 15.8927 13 16.795 13ZM18.0055 6.46154H21.3728V9.53846H18.0055V6.46154Z" fill="#E4E4E4"/>
<path d="M30.9621 6.46154H33.271V8.48368H37V5.29604C37 4.4627 36.832 3.8683 36.4959 3.51865C36.1599 3.169 35.5962 3 34.8103 3H32.7344C32.187 3 31.7967 3.05827 31.5528 3.169C31.3089 3.27972 31.1084 3.47785 30.9621 3.7634V3H27V13H30.9621V6.46154Z" fill="#E4E4E4"/>
<path d="M41.7139 12.8499H44.0593C44.6576 12.8499 45.1117 12.7581 45.4269 12.5687C45.7421 12.3793 45.9879 12.0693 46.1588 11.633V13.9118H42.5954V17H46.6931C47.9004 17 48.7499 16.7187 49.2521 16.1562C49.7542 15.5937 50 14.6294 50 13.2632V3H46.1535V3.88971C45.9024 3.56253 45.6299 3.33292 45.3361 3.2009C45.0476 3.06888 44.6683 3 44.2035 3H41.7086C40.8378 3 40.17 3.24682 39.6999 3.73473C39.2351 4.22263 39 4.92866 39 5.84707V10.0086C39 10.927 39.2297 11.6273 39.6945 12.1152C40.17 12.6031 40.8431 12.8499 41.7139 12.8499ZM42.8893 6.40959H46.1588V9.44034H42.8893V6.40959Z" fill="#E4E4E4"/>
<path d="M56 3H52V13H56V3Z" fill="#E4E4E4"/>
<path d="M56 0H52V2H56V0Z" fill="#E4E4E4"/>
</svg>
